<?xml version="1.0" encoding="utf-8"?>
<!-- Generator: Adobe Illustrator 24.0.3, SVG Export Plug-In . SVG Version: 6.00 Build 0)  -->
<!DOCTYPE svg PUBLIC "-//W3C//DTD SVG 1.1//EN" "http://www.w3.org/Graphics/SVG/1.1/DTD/svg11.dtd" [
	<!ENTITY ns_extend "http://ns.adobe.com/Extensibility/1.0/">
	<!ENTITY ns_ai "http://ns.adobe.com/AdobeIllustrator/10.0/">
	<!ENTITY ns_graphs "http://ns.adobe.com/Graphs/1.0/">
	<!ENTITY ns_vars "http://ns.adobe.com/Variables/1.0/">
	<!ENTITY ns_imrep "http://ns.adobe.com/ImageReplacement/1.0/">
	<!ENTITY ns_sfw "http://ns.adobe.com/SaveForWeb/1.0/">
	<!ENTITY ns_custom "http://ns.adobe.com/GenericCustomNamespace/1.0/">
	<!ENTITY ns_adobe_xpath "http://ns.adobe.com/XPath/1.0/">
]>
<svg version="1.1" id="Layer_1" xmlns:x="&ns_extend;" xmlns:i="&ns_ai;" xmlns:graph="&ns_graphs;"
	 xmlns="http://www.w3.org/2000/svg" xmlns:xlink="http://www.w3.org/1999/xlink" x="0px" y="0px" viewBox="0 0 40 35.7"
	 style="enable-background:new 0 0 40 35.7;" xml:space="preserve">
<style type="text/css">
	.st0{fill-rule:evenodd;clip-rule:evenodd;fill:url(#SVGID_1_);}
	.st1{fill-rule:evenodd;clip-rule:evenodd;fill:url(#SVGID_2_);}
	.st2{fill-rule:evenodd;clip-rule:evenodd;fill:url(#SVGID_3_);stroke:#000000;}
	.st3{fill-rule:evenodd;clip-rule:evenodd;fill:url(#SVGID_4_);stroke:url(#SVGID_5_);}
	.st4{fill-rule:evenodd;clip-rule:evenodd;fill:url(#SVGID_6_);stroke:url(#SVGID_7_);}
	.st5{fill-rule:evenodd;clip-rule:evenodd;fill:url(#SVGID_8_);}
	.st6{fill-rule:evenodd;clip-rule:evenodd;fill:url(#SVGID_9_);}
	.st7{fill:none;stroke:#000000;}
</style>
<metadata>
	<sfw  xmlns="&ns_sfw;">
		<slices></slices>
		<sliceSourceBounds  bottomLeftOrigin="true" height="35.7" width="40" x="3" y="90"></sliceSourceBounds>
	</sfw>
</metadata>
<g transform="matrix(.36623 0 0 .33025 85.152 4.2093)" vector-effect="non-scaling-stroke">
	
		<linearGradient id="SVGID_1_" gradientUnits="userSpaceOnUse" x1="-1871.2102" y1="1302.5492" x2="-1870.7054" y2="1302.9143" gradientTransform="matrix(29.8153 0 0 -27.7764 55574.4766 36239.2266)">
		<stop  offset="0" style="stop-color:#664314"/>
		<stop  offset="1" style="stop-color:#A06B08"/>
	</linearGradient>
	<path class="st0" d="M-227.3,41.6c7.5,0.1,16-1.6,17.8-9c1.7-7.2,0.8-44.4,27.3-45.3c25.4-0.8,32.1,20.5,34.3,32.1
		c7,37.5-2.2,62.7-55.5,47.5c-6-3.5-9.7-3.7-13.8-9.2c3.6,0.1,5.5,0.3,6-3.2c-4.8,0.2-9.5-0.2-11.4-8.6c8.8,1.2,12.8-2.6,16.5-8.3
		C-210.4,44.5-215.6,48.4-227.3,41.6L-227.3,41.6z"/>
	
		<linearGradient id="SVGID_2_" gradientUnits="userSpaceOnUse" x1="-1345.9006" y1="1202.2931" x2="-1346.7412" y2="1201.1887" gradientTransform="matrix(2.9137 0 0 -7.003 3721.7524 8432.9688)">
		<stop  offset="0" style="stop-color:#DA8410"/>
		<stop  offset="1" style="stop-color:#C97402;stop-opacity:0"/>
	</linearGradient>
	<path class="st1" d="M-209,34.8c3.9-5.2,5.1-11.6,6.1-19.2c2.7,7.4,2.9,14.8-2,21.2"/>
	
		<linearGradient id="SVGID_3_" gradientUnits="userSpaceOnUse" x1="-1883.3185" y1="1257.5778" x2="-1883.3188" y2="1258.5729" gradientTransform="matrix(38.7972 0 0 -12.1487 72889.5156 15369.0977)">
		<stop  offset="0" style="stop-color:#000000"/>
		<stop  offset="1" style="stop-color:#747474"/>
	</linearGradient>
	<path class="st2" d="M-230.9,88.7c2.4-6.8,3.5-15.8,12-20l39.1-11.9l40.8,11.3c7.2,2.6,10.6,13.1,14,21c-2.2,1.6-4.2,4-6.8,4.5
		h-92.7C-227.5,92.5-229,90.5-230.9,88.7L-230.9,88.7z"/>
	
		<radialGradient id="SVGID_4_" cx="37435.0312" cy="3581.3435" r="15.009" gradientTransform="matrix(3.801468e-02 2.983017e-02 7.068010e-02 -9.007239e-02 -1849.2745 -730.9045)" gradientUnits="userSpaceOnUse">
		<stop  offset="0" style="stop-color:#FFEED6"/>
		<stop  offset="1" style="stop-color:#FFCD8B"/>
	</radialGradient>
	
		<linearGradient id="SVGID_5_" gradientUnits="userSpaceOnUse" x1="-1768.0673" y1="1278.7432" x2="-1768.1162" y2="1278.244" gradientTransform="matrix(10.6274 0 0 -15.9523 18611.0703 20454.1289)">
		<stop  offset="0" style="stop-color:#D49C56"/>
		<stop  offset="1" style="stop-color:#D49C56;stop-opacity:0.258"/>
	</linearGradient>
	<path class="st3" d="M-191.3,48.2c0.2,5.1,0.8,9.7-1.6,14l5.7,31.6l13.1-0.2l10.2-33.7l-0.9-14.5L-191.3,48.2L-191.3,48.2z"/>
	
		<radialGradient id="SVGID_6_" cx="3935.1033" cy="-834.7355" r="21.607" gradientTransform="matrix(0.2634 -6.298790e-03 -1.160234e-02 -0.4852 -1219.7511 -354.4289)" gradientUnits="userSpaceOnUse">
		<stop  offset="0" style="stop-color:#FFEED6"/>
		<stop  offset="1" style="stop-color:#FFCD8B"/>
	</radialGradient>
	
		<linearGradient id="SVGID_7_" gradientUnits="userSpaceOnUse" x1="-1817.8799" y1="1284.0703" x2="-1817.7656" y2="1285.1467" gradientTransform="matrix(15.4602 0 0 -18.2912 27921.9707 23544.7461)">
		<stop  offset="0" style="stop-color:#D49C56"/>
		<stop  offset="1" style="stop-color:#D49C56;stop-opacity:0"/>
	</linearGradient>
	<path class="st4" d="M-200.6,21c0.5,8,0.7,16,2.5,24c0,0,8.1,9.2,12.7,11.2c4.5,2,5.8,1.7,10.1-0.1c4.3-1.8,14.2-10.6,14.2-10.6
		c4.3-17.3,5.7-33.7-13.3-43.3l-13.8,20.5l-0.4-8l-3.5,6.1C-194.4,17.8-199,18.8-200.6,21L-200.6,21z"/>
	
		<linearGradient id="SVGID_8_" gradientUnits="userSpaceOnUse" x1="-1746.288" y1="1128.748" x2="-1745.6031" y2="1129.3694" gradientTransform="matrix(9.3191 0 0 -4.6308 16106.4268 5279.1211)">
		<stop  offset="0" style="stop-color:#9F5F09"/>
		<stop  offset="1" style="stop-color:#9F5F09;stop-opacity:0"/>
	</linearGradient>
	<path class="st5" d="M-152.4,40.2c-3.6,8.5-13.3,11.9-22.6,10.4c9,7.1,22.3,3.7,25.4-8.4"/>
	
		<linearGradient id="SVGID_9_" gradientUnits="userSpaceOnUse" x1="-1773.437" y1="1262.6522" x2="-1770.8252" y2="1261.8" gradientTransform="matrix(10.5494 0 0 -12.3871 18452.9375 15651.3594)">
		<stop  offset="0" style="stop-color:#FFFFFF"/>
		<stop  offset="1" style="stop-color:#FFFFFF;stop-opacity:0"/>
	</linearGradient>
	<path class="st6" d="M-200.7,21c0.8,7.9,1.3,15.6,3.1,23.8c4.5,4.7,13.8,14.9,19.3,11.8c3.5-0.8,4.5-2,6.5-3
		c-12.1,3.6-16.8-2.8-23-10.1l-4.1-23.9L-200.7,21L-200.7,21z"/>
	<g>
		<path class="st7" d="M-164.1,60.7l-9.9,33.1"/>
		<path class="st7" d="M-193.4,60.8l6,33"/>
	</g>
</g>
</svg>
